HIERARCHY
ROOT Hips
{
	OFFSET 0.000000 0.000000 0.000000
	CHANNELS 6 Xposition Yposition Zposition Zrotation Yrotation Xrotation 
	JOINT LHipJoint
	{
		OFFSET 0.000000 0.000000 0.000000
		CHANNELS 3 Zrotation Yrotation Xrotation
		JOINT LeftUpLeg
		{
			OFFSET 1.363060 -1.794630 0.839290
			CHANNELS 3 Zrotation Yrotation Xrotation
			JOINT LeftLeg
			{
				OFFSET 2.448110 -6.726130 0.000000
				CHANNELS 3 Zrotation Yrotation Xrotation
				JOINT LeftFoot
				{
					OFFSET 2.562200 -7.039590 0.000000
					CHANNELS 3 Zrotation Yrotation Xrotation
					JOINT LeftToeBase
					{
						OFFSET 0.157640 -0.433110 2.322550
						CHANNELS 3 Zrotation Yrotation Xrotation
						End Site
						{
							OFFSET 0.000000 0.000000 0.000000
						}
					}
				}
			}
		}
	}
	JOINT RHipJoint
	{
		OFFSET 0.000000 0.000000 0.000000
		CHANNELS 3 Zrotation Yrotation Xrotation
		JOINT RightUpLeg
		{
			OFFSET -1.305520 -1.794630 0.839290
			CHANNELS 3 Zrotation Yrotation Xrotation
			JOINT RightLeg
			{
				OFFSET -2.542530 -6.985550 0.000000
				CHANNELS 3 Zrotation Yrotation Xrotation
				JOINT RightFoot
				{
					OFFSET -2.568260 -7.056230 0.000000
					CHANNELS 3 Zrotation Yrotation Xrotation
					JOINT RightToeBase
					{
						OFFSET -0.164730 -0.452590 2.363150
						CHANNELS 3 Zrotation Yrotation Xrotation
						End Site
						{
							OFFSET 0.000000 0.000000 0.000000
						}
					}
				}
			}
		}
	}
	JOINT LowerBack
	{
		OFFSET 0.000000 0.000000 0.000000
		CHANNELS 3 Zrotation Yrotation Xrotation
		JOINT Spine
		{
			OFFSET 0.028270 2.035590 -0.193380
			CHANNELS 3 Zrotation Yrotation Xrotation
			JOINT Spine1
			{
				OFFSET 0.056720 2.048850 -0.042750
				CHANNELS 3 Zrotation Yrotation Xrotation
				JOINT Neck
				{
					OFFSET 0.000000 0.000000 0.000000
					CHANNELS 3 Zrotation Yrotation Xrotation
					JOINT Neck1
					{
						OFFSET -0.054170 1.746240 0.172020
						CHANNELS 3 Zrotation Yrotation Xrotation
						JOINT Head
						{
							OFFSET 0.104070 1.761360 -0.123970
							CHANNELS 3 Zrotation Yrotation Xrotation
							End Site
							{
								OFFSET 0.000000 0.000000 0.000000
							}
						}
					}
				}
				JOINT LeftShoulder
				{
					OFFSET 0.000000 0.000000 0.000000
					CHANNELS 3 Zrotation Yrotation Xrotation
					JOINT LeftArm
					{
						OFFSET 3.362410 1.200890 -0.311210
						CHANNELS 3 Zrotation Yrotation Xrotation
						JOINT LeftForeArm
						{
							OFFSET 4.983000 -0.000000 -0.000000
							CHANNELS 3 Zrotation Yrotation Xrotation
							JOINT LeftHand
							{
								OFFSET 3.483560 -0.000000 -0.000000
								CHANNELS 3 Zrotation Yrotation Xrotation
								JOINT LeftFingerBase
								{
									OFFSET 0.000000 0.000000 0.000000
									CHANNELS 3 Zrotation Yrotation Xrotation
									JOINT LeftHandIndex1
									{
										OFFSET 0.715260 -0.000000 -0.000000
										CHANNELS 3 Zrotation Yrotation Xrotation
										End Site
										{
											OFFSET 0.000000 0.000000 0.000000
										}
									}
								}
								JOINT LThumb
								{
									OFFSET 0.000000 0.000000 0.000000
									CHANNELS 3 Zrotation Yrotation Xrotation
									End Site
									{
										OFFSET 0.000000 0.000000 0.000000
									}
								}
							}
						}
					}
				}
				JOINT RightShoulder
				{
					OFFSET 0.000000 0.000000 0.000000
					CHANNELS 3 Zrotation Yrotation Xrotation
					JOINT RightArm
					{
						OFFSET -3.136600 1.374050 -0.404650
						CHANNELS 3 Zrotation Yrotation Xrotation
						JOINT RightForeArm
						{
							OFFSET -5.241900 -0.000000 -0.000000
							CHANNELS 3 Zrotation Yrotation Xrotation
							JOINT RightHand
							{
								OFFSET -3.444170 -0.000000 -0.000000
								CHANNELS 3 Zrotation Yrotation Xrotation
								JOINT RightFingerBase
								{
									OFFSET 0.000000 0.000000 0.000000
									CHANNELS 3 Zrotation Yrotation Xrotation
									JOINT RightHandIndex1
									{
										OFFSET -0.622530 -0.000000 -0.000000
										CHANNELS 3 Zrotation Yrotation Xrotation
										End Site
										{
											OFFSET 0.000000 0.000000 0.000000
										}
									}
								}
								JOINT RThumb
								{
									OFFSET 0.000000 0.000000 0.000000
									CHANNELS 3 Zrotation Yrotation Xrotation
									End Site
									{
										OFFSET 0.000000 0.000000 0.000000
									}
								}
							}
						}
					}
				}
			}
		}
	}
}
MOTION
Frames: 10
Frame Time: 0.008333
0.984882 17.855940 -31.462123 2.941473 3.305530 3.924894 -3.512535 6.426034 8.057166 -17.282361 -6.729106 4.174069 -0.948376 4.566283 20.790847 2.287613 -7.092688 10.874080 0.697700 -5.339300 -14.878800 3.834628 -2.730606 0.658582 9.652669 12.880662 -31.785476 0.440438 -6.594505 18.175756 4.132040 -16.261254 15.911835 -0.000700 0.166400 -0.457200 -4.806193 -2.361460 5.962618 3.023428 -3.059941 2.315415 5.231950 -2.011264 -5.632017 -4.620933 -4.246073 -18.739987 3.318959 -4.547704 16.449176 -0.412900 -1.864700 9.798900 -7.387618 1.735431 -1.075858 -73.996111 -10.563398 33.465566 15.869005 -26.258769 -4.257515 -1.193710 -1.253332 -7.661076 33.642344 17.582418 12.579000 -7.125000 0.000000 0.000000 7.090500 52.159700 1.255000 11.726846 -1.710328 -2.660141 75.099744 -3.206748 4.051112 -8.726571 19.804439 -2.062872 1.209668 -0.819266 7.135289 -16.767007 21.481982 -6.971500 7.125000 0.000000 0.000000 6.766500 -7.070300 5.924700 
0.976357 17.903231 -31.223540 2.174564 4.374153 3.753733 -3.432078 6.491797 8.076705 -16.176318 -7.952186 4.439171 -0.827281 4.970858 21.836779 2.422263 -7.633339 12.867014 0.699300 -5.345300 -14.896200 3.853501 -2.842736 0.808176 10.366702 12.545519 -31.279184 0.381634 -6.724364 18.729770 3.964155 -15.785723 15.989425 -0.005600 -0.485000 1.332700 -4.442845 -3.446577 5.820386 4.042764 -4.468369 1.114865 6.278944 -2.600026 -6.826125 -6.774438 -3.215712 -13.781515 3.678605 -3.186955 15.541190 0.231800 -1.390100 8.631200 -7.337446 1.732251 -1.050178 -75.671774 -6.846126 30.852472 16.016791 -26.490217 -4.335682 -1.198550 -1.223813 -6.728643 33.670395 17.226808 12.359100 -7.125000 0.000000 0.000000 7.122300 51.748200 1.188600 11.873009 -1.900992 -2.878048 72.967724 -5.996419 6.451032 -8.460670 19.721169 -1.994604 1.246120 -0.809263 6.932023 -16.485822 21.552740 -6.887000 7.125000 0.000000 0.000000 6.927200 -7.045600 6.070900 
0.967122 17.936415 -31.001396 1.523622 4.248670 3.581315 -3.345466 6.522818 8.049507 -15.562420 -8.223661 4.204606 -0.598798 5.474319 23.281758 2.498096 -8.025198 14.796048 0.714700 -5.402500 -15.060100 3.902700 -2.859198 0.905408 11.155982 12.529487 -30.869386 0.320173 -6.845993 19.410018 3.387455 -14.466114 16.944227 -0.044500 -1.361500 3.744000 -2.987770 -2.955441 5.714790 3.460374 -3.659555 2.036960 4.746638 -2.305807 -5.854425 -5.174556 -4.081502 -17.594579 3.564706 -4.315250 16.485671 -0.198000 -1.773000 9.623400 -7.382538 1.781783 -1.082551 -74.663403 -9.203647 32.271362 15.714221 -26.054557 -4.183312 -1.188343 -1.204076 -6.790427 33.077111 16.853927 11.848600 -7.125000 0.000000 0.000000 6.508800 51.174800 0.993700 11.780748 -1.738931 -2.679932 74.729873 -3.791635 3.422544 -8.284290 19.147315 -1.898191 1.205581 -0.848836 8.020541 -16.571426 21.355310 -6.861700 7.125000 0.000000 0.000000 6.875700 -7.214900 6.002200 
0.954336 17.956204 -30.779962 1.202413 3.904958 3.454217 -3.304998 6.473007 8.000439 -15.279746 -8.029868 3.811224 -0.359656 5.917934 24.703560 2.586709 -8.571272 17.066688 0.840600 -5.848300 -16.344800 3.898060 -2.890729 0.998337 11.854104 12.318717 -30.690418 0.226209 -7.036785 20.148112 2.903532 -13.521208 18.194476 -0.057500 -1.547000 4.255200 -2.832655 -3.051370 5.748847 3.785144 -3.786513 1.319344 5.007047 -2.313791 -6.728285 -5.874810 -3.640313 -14.731403 3.622657 -3.867622 15.800635 -0.006600 -1.638100 8.881800 -7.353584 1.770760 -1.071698 -75.357381 -7.040641 31.385457 15.664447 -26.013345 -4.162631 -1.177934 -1.172251 -6.423002 32.713510 16.179275 11.258700 -7.125000 0.000000 0.000000 6.151300 50.303600 0.806800 11.859574 -1.869424 -2.800469 73.960741 -5.406284 3.759435 -7.982820 18.806761 -1.798248 1.232971 -0.836506 8.309006 -16.606891 21.031590 -6.784400 7.125000 0.000000 0.000000 6.812500 -7.563200 5.899500 
0.941752 17.957422 -30.554977 1.092499 3.614474 3.362948 -3.232209 6.432493 7.929651 -15.209714 -7.853073 3.459392 -0.074215 6.410305 26.291755 2.638898 -8.978832 19.445213 0.891700 -6.018900 -16.839100 3.868195 -2.873109 1.084759 12.423311 11.813493 -30.636609 0.122157 -7.259388 20.934583 2.537696 -12.721839 18.915669 -0.099000 -2.028800 5.585400 -2.332774 -2.746529 5.660105 3.427213 -3.332738 1.909725 4.293563 -2.138967 -6.035061 -4.848780 -4.095497 -17.444020 3.362502 -4.421080 16.424659 -0.337300 -1.821500 9.565700 -7.400026 1.806381 -1.099821 -74.961202 -8.334930 31.860977 15.402404 -25.640652 -4.034404 -1.189496 -1.144060 -6.565702 32.710914 15.508362 10.825800 -7.125000 0.000000 0.000000 6.197300 49.490900 0.688600 11.820527 -1.764510 -2.651294 74.847611 -3.672484 1.385301 -7.687785 18.122916 -1.666303 1.203628 -0.904273 9.587207 -16.724374 21.173811 -6.885000 7.125000 0.000000 0.000000 6.752500 -7.358500 5.874000 
0.924703 17.959046 -30.337095 0.913169 3.073983 3.260084 -3.184960 6.365893 7.853797 -15.069178 -7.410810 2.920477 0.247962 6.920479 27.975244 2.696934 -9.320397 22.279428 0.799800 -5.708100 -15.939800 3.825042 -2.904708 1.183331 13.059344 11.669731 -30.470461 0.008536 -7.461994 21.759433 2.250269 -11.885872 19.030696 -0.152400 -2.515400 6.932400 -2.482668 -2.852493 5.630559 3.839752 -3.493726 1.462369 4.821537 -2.172919 -6.535729 -5.621515 -3.703797 -15.698655 3.322429 -3.862101 15.988796 -0.157800 -1.642800 9.112800 -7.391883 1.809808 -1.094913 -75.826364 -6.702411 30.630257 15.355151 -25.601476 -4.013688 -1.214971 -1.165778 -6.311848 33.303925 15.985601 11.388700 -7.125000 0.000000 0.000000 6.803400 50.182900 0.872700 11.890767 -1.839595 -2.725202 73.928764 -4.609248 1.716853 -7.460036 17.867977 -1.596267 1.203896 -0.930600 10.060700 -16.503026 21.327489 -6.849400 7.125000 0.000000 0.000000 6.896800 -7.215700 6.020900 
0.907147 17.982691 -30.123577 0.704897 2.591952 3.144226 -3.175755 6.284704 7.763226 -14.861708 -6.976778 2.058325 0.535349 7.428940 29.645148 2.892882 -9.998501 26.984534 0.249900 -3.216900 -8.883100 3.819062 -2.922063 1.291739 13.665494 11.483711 -30.189463 -0.093654 -7.625862 22.481066 2.017721 -11.153797 19.031008 -0.192000 -2.822000 7.783600 -2.352041 -2.757798 5.647943 3.941321 -3.361220 1.393327 4.844770 -2.094914 -6.652285 -5.688066 -3.625288 -15.852530 3.335511 -3.713944 16.273316 -0.123300 -1.569500 9.245900 -7.395673 1.850736 -1.104152 -76.050141 -6.043977 30.443658 15.391394 -25.659082 -4.030764 -1.205833 -1.180286 -6.666506 33.276311 16.073716 11.437300 -7.125000 0.000000 0.000000 6.769700 50.288500 0.886000 11.894616 -1.830615 -2.736090 73.724540 -4.914635 1.840071 -7.430705 17.861883 -1.596591 1.178904 -0.941020 10.103900 -15.978660 21.463507 -6.672200 7.125000 0.000000 0.000000 7.251400 -7.132700 6.347300 
0.886140 18.019326 -29.908334 0.598523 2.226735 3.023115 -3.157499 6.181067 7.624808 -14.761510 -6.667523 1.046435 0.863714 7.977022 31.462463 3.133077 -11.192899 30.257689 0.381200 -3.965000 -10.978300 3.848019 -2.954220 1.409582 14.031764 11.515346 -29.669223 -0.174826 -7.710539 22.963509 1.880011 -10.705297 19.100563 -0.356700 -3.837100 10.618900 -2.228790 -2.576554 5.825163 3.872387 -3.121801 1.327864 4.688064 -1.966414 -6.851949 -5.550467 -3.719793 -16.402207 3.433122 -3.823269 16.833959 -0.118300 -1.581100 9.547500 -7.401437 1.909148 -1.125278 -76.072119 -5.472846 30.603721 15.485303 -25.794774 -4.075662 -1.187674 -1.192271 -6.810593 33.025245 16.236969 11.437200 -7.125000 0.000000 0.000000 6.488200 50.442400 0.873500 11.885114 -1.800454 -2.716684 73.877557 -4.968896 1.100449 -7.322929 17.667269 -1.560575 1.156592 -0.961322 10.387864 -15.615021 21.563233 -6.552300 7.125000 0.000000 0.000000 7.497100 -7.061000 6.576700 
0.865945 18.050785 -29.702022 0.365879 1.847455 2.880804 -3.117147 6.081692 7.468618 -14.595343 -6.503452 0.085589 1.242208 8.555028 33.389661 3.310101 -12.451703 32.284275 0.709500 -5.383300 -15.005100 3.898263 -3.007301 1.539029 14.494788 11.637274 -28.993593 -0.198503 -7.682189 23.158137 1.757578 -10.263912 19.103019 -0.350200 -3.802000 10.520200 -2.070198 -2.585625 5.767522 4.006142 -3.125942 1.195818 4.722366 -1.944693 -6.978149 -5.835605 -3.576272 -15.581874 3.469871 -3.654289 16.543579 -0.040200 -1.530400 9.300200 -7.395487 1.923406 -1.133929 -76.340900 -4.554849 30.348437 15.543487 -25.901814 -4.103784 -1.181847 -1.277950 -6.904609 33.220576 18.010971 12.674600 -7.125000 0.000000 0.000000 6.585500 52.620600 1.239400 11.919354 -1.825188 -2.727451 73.545156 -5.157011 1.103976 -7.133510 17.386295 -1.498478 1.145251 -0.978172 10.669108 -15.339978 21.581575 -6.447700 7.125000 0.000000 0.000000 7.674900 -7.065200 6.734900 
0.843213 18.077171 -29.499667 -0.153765 1.729736 2.775212 -3.072725 6.028252 7.322187 -14.003174 -6.589592 -0.804046 1.739696 9.207658 35.288944 3.386849 -11.766763 35.314211 0.413700 -4.128700 -11.439000 3.952362 -3.070207 1.679858 15.293752 11.598027 -28.353034 -0.207348 -7.632708 23.305499 1.654140 -9.833678 18.973351 -0.484500 -4.463500 12.384300 -1.646999 -2.948026 4.892628 4.289789 -3.565151 1.129917 4.757277 -2.145760 -6.548022 -6.528362 -2.989659 -13.099765 3.767663 -3.046739 15.257587 0.234600 -1.305200 8.409400 -7.369254 1.885905 -1.117916 -76.769477 -3.417894 29.114369 15.454964 -25.797828 -4.061988 -1.146994 -1.300305 -6.818771 32.423798 18.468232 12.590000 -7.125000 0.000000 0.000000 5.654900 53.009900 1.117200 11.975295 -1.918051 -2.775701 72.963159 -5.543033 2.388792 -7.012660 17.268223 -1.460371 1.160685 -0.966679 10.750329 -15.460066 21.370360 -6.439300 7.125000 0.000000 0.000000 7.576900 -7.279900 6.615300 
